# xmcd
#
# Track frame offsets: 
#        150
#        19202
#        37623
#        55558
#        69640
#        91925
#        108038
#        123668
#        141243
#        159513
#        175898
#        190803
#        207848
#        221590
#        233110
#
# Disc length: 3346 seconds
#
# Revision: 1
# Processed by: cddbd v1.5.2PL0 Copyright (c) Steve Scherf et al.
# Submitted via: ExactAudioCopy v1.0b3
#
DISCID=c60d100f
DTITLE=アリス  - Alice Golden Best [Disc 1]
DYEAR=2011
DGENRE=JPop
TTITLE0=チャンピオン
TTITLE1=帰らざる日々
TTITLE2=今はもうだれも
TTITLE3=冬の稲妻
TTITLE4=さらば青春の時
TTITLE5=走っておいで恋人よ
TTITLE6=涙の誓い
TTITLE7=何処へ
TTITLE8=明日への讃歌 
TTITLE9=あなたのために
TTITLE10=愛の光
TTITLE11=ゴールは見えない
TTITLE12=さよなら昨日までの悲しい思い出 
TTITLE13=地図にない町
TTITLE14=遠くで汽笛を聞きながら 
EXTD=
EXTT0=
EXTT1=
EXTT2=
EXTT3=
EXTT4=
EXTT5=
EXTT6=
EXTT7=
EXTT8=
EXTT9=
EXTT10=
EXTT11=
EXTT12=
EXTT13=
EXTT14=
PLAYORDER=
